<?xml version="1.0" encoding="utf-8"?>
<!-- Generator: Adobe Illustrator 21.0.0, SVG Export Plug-In . SVG Version: 6.00 Build 0)  -->
<svg version="1.1" id="Layer_1" xmlns="http://www.w3.org/2000/svg" xmlns:xlink="http://www.w3.org/1999/xlink" x="0px" y="0px"
	 viewBox="0 0 512 512" style="enable-background:new 0 0 512 512;" xml:space="preserve">
<g>
	<path d="M0,256c0,23.6,19.1,42.7,42.7,42.7s42.7-19.1,42.7-42.7s-19.1-42.7-42.7-42.7S0,232.4,0,256z M213.3,256
		c0,23.6,19.1,42.7,42.7,42.7s42.7-19.1,42.7-42.7s-19.1-42.7-42.7-42.7S213.3,232.4,213.3,256z M426.7,256
		c0,23.6,19.1,42.7,42.7,42.7c23.6,0,42.7-19.1,42.7-42.7s-19.1-42.7-42.7-42.7C445.8,213.3,426.7,232.4,426.7,256z"/>
</g>
</svg>
