<?xml version="1.0" encoding="utf-8"?>
<!-- Generator: Adobe Illustrator 21.0.0, SVG Export Plug-In . SVG Version: 6.00 Build 0)  -->
<svg version="1.1" id="Layer_1" xmlns="http://www.w3.org/2000/svg" xmlns:xlink="http://www.w3.org/1999/xlink" x="0px" y="0px"
	 viewBox="0 0 512 512" style="enable-background:new 0 0 512 512;" xml:space="preserve">
<g>
	<path d="M493.7,91.4h-91.4v-32c0-2.5-2.1-4.6-4.6-4.6h-32c-2.5,0-4.6,2.1-4.6,4.6v32h-84.6v-32c0-2.5-2.1-4.6-4.6-4.6h-32
		c-2.5,0-4.6,2.1-4.6,4.6v32h-84.6v-32c0-2.5-2.1-4.6-4.6-4.6h-32c-2.5,0-4.6,2.1-4.6,4.6v32H18.3C8.2,91.4,0,99.6,0,109.7v329.1
		c0,10.1,8.2,18.3,18.3,18.3h475.4c10.1,0,18.3-8.2,18.3-18.3V109.7C512,99.6,503.8,91.4,493.7,91.4z M470.9,416H41.1V132.6h68.6v32
		c0,2.5,2.1,4.6,4.6,4.6h32c2.5,0,4.6-2.1,4.6-4.6v-32h84.6v32c0,2.5,2.1,4.6,4.6,4.6h32c2.5,0,4.6-2.1,4.6-4.6v-32h84.6v32
		c0,2.5,2.1,4.6,4.6,4.6h32c2.5,0,4.6-2.1,4.6-4.6v-32h68.6V416z M201.1,246.9H96c-2.5,0-4.6,2.1-4.6,4.6v27.4
		c0,2.5,2.1,4.6,4.6,4.6h105.1c2.5,0,4.6-2.1,4.6-4.6v-27.4C205.7,248.9,203.7,246.9,201.1,246.9z M201.1,324.6H96
		c-2.5,0-4.6,2.1-4.6,4.6v27.4c0,2.5,2.1,4.6,4.6,4.6h105.1c2.5,0,4.6-2.1,4.6-4.6v-27.4C205.7,326.6,203.7,324.6,201.1,324.6z
		 M377.3,223.2l-59.2,82.1l-30.2-41.8c-1.7-2.4-4.5-3.8-7.4-3.8h-31.4c-3.7,0-5.9,4.2-3.7,7.3l65.2,90.4c2.9,4.1,8.6,5,12.7,2.1
		c0.8-0.6,1.5-1.3,2.1-2.1l94.3-130.7c2.2-3,0-7.3-3.7-7.3h-31.4C381.7,219.4,379,220.9,377.3,223.2z"/>
</g>
</svg>
